<svg width="324" height="792" viewBox="0 0 324 792" fill="none" xmlns="http://www.w3.org/2000/svg">
<line x1="183" y1="693" x2="183" y2="791" stroke="black" stroke-width="2" stroke-linecap="round"/>
<line x1="1" y1="643" x2="0.999996" y2="741" stroke="black" stroke-width="2" stroke-linecap="round"/>
<line x1="183" y1="693" x2="183" y2="791" stroke="black" stroke-width="2" stroke-linecap="round"/>
<line x1="1" y1="643" x2="0.999996" y2="741" stroke="black" stroke-width="2" stroke-linecap="round"/>
<line x1="183" y1="593" x2="183" y2="691" stroke="black" stroke-width="2" stroke-linecap="round"/>
<line x1="1" y1="543" x2="0.999996" y2="641" stroke="black" stroke-width="2" stroke-linecap="round"/>
<line x1="183" y1="593" x2="183" y2="691" stroke="black" stroke-width="2" stroke-linecap="round"/>
<line x1="1" y1="543" x2="0.999996" y2="641" stroke="black" stroke-width="2" stroke-linecap="round"/>
<line x1="183" y1="493" x2="183" y2="591" stroke="black" stroke-width="2" stroke-linecap="round"/>
<line x1="1" y1="443" x2="0.999996" y2="541" stroke="black" stroke-width="2" stroke-linecap="round"/>
<line x1="183" y1="493" x2="183" y2="591" stroke="black" stroke-width="2" stroke-linecap="round"/>
<line x1="1" y1="443" x2="0.999996" y2="541" stroke="black" stroke-width="2" stroke-linecap="round"/>
<line x1="183" y1="393" x2="183" y2="491" stroke="black" stroke-width="2" stroke-linecap="round"/>
<line x1="1" y1="343" x2="0.999996" y2="441" stroke="black" stroke-width="2" stroke-linecap="round"/>
<line x1="183" y1="393" x2="183" y2="491" stroke="black" stroke-width="2" stroke-linecap="round"/>
<line x1="1" y1="343" x2="0.999996" y2="441" stroke="black" stroke-width="2" stroke-linecap="round"/>
<line x1="183" y1="293" x2="183" y2="391" stroke="black" stroke-width="2" stroke-linecap="round"/>
<line x1="1" y1="243" x2="0.999996" y2="341" stroke="black" stroke-width="2" stroke-linecap="round"/>
<line x1="183" y1="293" x2="183" y2="391" stroke="black" stroke-width="2" stroke-linecap="round"/>
<line x1="1" y1="243" x2="0.999996" y2="341" stroke="black" stroke-width="2" stroke-linecap="round"/>
<line x1="183" y1="193" x2="183" y2="291" stroke="black" stroke-width="2" stroke-linecap="round"/>
<line x1="1" y1="143" x2="0.999996" y2="241" stroke="black" stroke-width="2" stroke-linecap="round"/>
<line x1="183" y1="193" x2="183" y2="291" stroke="black" stroke-width="2" stroke-linecap="round"/>
<line x1="1" y1="143" x2="0.999996" y2="241" stroke="black" stroke-width="2" stroke-linecap="round"/>
<line x1="183" y1="93" x2="183" y2="191" stroke="black" stroke-width="2" stroke-linecap="round"/>
<line x1="1" y1="43" x2="0.999996" y2="141" stroke="black" stroke-width="2" stroke-linecap="round"/>
<line x1="183" y1="93" x2="183" y2="191" stroke="black" stroke-width="2" stroke-linecap="round"/>
<line x1="1" y1="43" x2="0.999996" y2="141" stroke="black" stroke-width="2" stroke-linecap="round"/>
<line x1="281" y1="693" x2="281" y2="791" stroke="black" stroke-width="2" stroke-linecap="round"/>
<line x1="99" y1="643" x2="99" y2="741" stroke="black" stroke-width="2" stroke-linecap="round"/>
<line x1="281" y1="693" x2="281" y2="791" stroke="black" stroke-width="2" stroke-linecap="round"/>
<line x1="99" y1="643" x2="99" y2="741" stroke="black" stroke-width="2" stroke-linecap="round"/>
<line x1="323" y1="652" x2="323" y2="750" stroke="black" stroke-width="2" stroke-linecap="round"/>
<line x1="141" y1="602" x2="141" y2="700" stroke="black" stroke-width="2" stroke-linecap="round"/>
<line x1="323" y1="652" x2="323" y2="750" stroke="black" stroke-width="2" stroke-linecap="round"/>
<line x1="141" y1="602" x2="141" y2="700" stroke="black" stroke-width="2" stroke-linecap="round"/>
<line x1="281" y1="593" x2="281" y2="691" stroke="black" stroke-width="2" stroke-linecap="round"/>
<line x1="99" y1="543" x2="99" y2="641" stroke="black" stroke-width="2" stroke-linecap="round"/>
<line x1="281" y1="593" x2="281" y2="691" stroke="black" stroke-width="2" stroke-linecap="round"/>
<line x1="99" y1="543" x2="99" y2="641" stroke="black" stroke-width="2" stroke-linecap="round"/>
<line x1="323" y1="552" x2="323" y2="650" stroke="black" stroke-width="2" stroke-linecap="round"/>
<line x1="141" y1="502" x2="141" y2="600" stroke="black" stroke-width="2" stroke-linecap="round"/>
<line x1="323" y1="552" x2="323" y2="650" stroke="black" stroke-width="2" stroke-linecap="round"/>
<line x1="141" y1="502" x2="141" y2="600" stroke="black" stroke-width="2" stroke-linecap="round"/>
<line x1="281" y1="493" x2="281" y2="591" stroke="black" stroke-width="2" stroke-linecap="round"/>
<line x1="99" y1="443" x2="99" y2="541" stroke="black" stroke-width="2" stroke-linecap="round"/>
<line x1="281" y1="493" x2="281" y2="591" stroke="black" stroke-width="2" stroke-linecap="round"/>
<line x1="99" y1="443" x2="99" y2="541" stroke="black" stroke-width="2" stroke-linecap="round"/>
<line x1="323" y1="452" x2="323" y2="550" stroke="black" stroke-width="2" stroke-linecap="round"/>
<line x1="141" y1="402" x2="141" y2="500" stroke="black" stroke-width="2" stroke-linecap="round"/>
<line x1="323" y1="452" x2="323" y2="550" stroke="black" stroke-width="2" stroke-linecap="round"/>
<line x1="141" y1="402" x2="141" y2="500" stroke="black" stroke-width="2" stroke-linecap="round"/>
<line x1="281" y1="393" x2="281" y2="491" stroke="black" stroke-width="2" stroke-linecap="round"/>
<line x1="99" y1="343" x2="99" y2="441" stroke="black" stroke-width="2" stroke-linecap="round"/>
<line x1="281" y1="393" x2="281" y2="491" stroke="black" stroke-width="2" stroke-linecap="round"/>
<line x1="99" y1="343" x2="99" y2="441" stroke="black" stroke-width="2" stroke-linecap="round"/>
<line x1="323" y1="352" x2="323" y2="450" stroke="black" stroke-width="2" stroke-linecap="round"/>
<line x1="141" y1="302" x2="141" y2="400" stroke="black" stroke-width="2" stroke-linecap="round"/>
<line x1="323" y1="352" x2="323" y2="450" stroke="black" stroke-width="2" stroke-linecap="round"/>
<line x1="141" y1="302" x2="141" y2="400" stroke="black" stroke-width="2" stroke-linecap="round"/>
<line x1="281" y1="293" x2="281" y2="391" stroke="black" stroke-width="2" stroke-linecap="round"/>
<line x1="99" y1="243" x2="99" y2="341" stroke="black" stroke-width="2" stroke-linecap="round"/>
<line x1="281" y1="293" x2="281" y2="391" stroke="black" stroke-width="2" stroke-linecap="round"/>
<line x1="99" y1="243" x2="99" y2="341" stroke="black" stroke-width="2" stroke-linecap="round"/>
<line x1="323" y1="252" x2="323" y2="350" stroke="black" stroke-width="2" stroke-linecap="round"/>
<line x1="141" y1="202" x2="141" y2="300" stroke="black" stroke-width="2" stroke-linecap="round"/>
<line x1="323" y1="252" x2="323" y2="350" stroke="black" stroke-width="2" stroke-linecap="round"/>
<line x1="141" y1="202" x2="141" y2="300" stroke="black" stroke-width="2" stroke-linecap="round"/>
<line x1="281" y1="193" x2="281" y2="291" stroke="black" stroke-width="2" stroke-linecap="round"/>
<line x1="99" y1="143" x2="99" y2="241" stroke="black" stroke-width="2" stroke-linecap="round"/>
<line x1="281" y1="193" x2="281" y2="291" stroke="black" stroke-width="2" stroke-linecap="round"/>
<line x1="99" y1="143" x2="99" y2="241" stroke="black" stroke-width="2" stroke-linecap="round"/>
<line x1="323" y1="152" x2="323" y2="250" stroke="black" stroke-width="2" stroke-linecap="round"/>
<line x1="141" y1="102" x2="141" y2="200" stroke="black" stroke-width="2" stroke-linecap="round"/>
<line x1="323" y1="152" x2="323" y2="250" stroke="black" stroke-width="2" stroke-linecap="round"/>
<line x1="141" y1="102" x2="141" y2="200" stroke="black" stroke-width="2" stroke-linecap="round"/>
<line x1="281" y1="93" x2="281" y2="191" stroke="black" stroke-width="2" stroke-linecap="round"/>
<line x1="99" y1="43" x2="99" y2="141" stroke="black" stroke-width="2" stroke-linecap="round"/>
<line x1="281" y1="93" x2="281" y2="191" stroke="black" stroke-width="2" stroke-linecap="round"/>
<line x1="99" y1="43" x2="99" y2="141" stroke="black" stroke-width="2" stroke-linecap="round"/>
<line x1="323" y1="52" x2="323" y2="150" stroke="black" stroke-width="2" stroke-linecap="round"/>
<line x1="141" y1="2" x2="141" y2="100" stroke="black" stroke-width="2" stroke-linecap="round"/>
<line x1="323" y1="52" x2="323" y2="150" stroke="black" stroke-width="2" stroke-linecap="round"/>
<line x1="141" y1="2" x2="141" y2="100" stroke="black" stroke-width="2" stroke-linecap="round"/>
<line x1="281" y1="791" x2="183" y2="791" stroke="black" stroke-width="2" stroke-linecap="round"/>
<line x1="99" y1="741" x2="1" y2="741" stroke="black" stroke-width="2" stroke-linecap="round"/>
<line x1="281" y1="791" x2="183" y2="791" stroke="black" stroke-width="2" stroke-linecap="round"/>
<line x1="99" y1="741" x2="1" y2="741" stroke="black" stroke-width="2" stroke-linecap="round"/>
<line x1="281" y1="693" x2="183" y2="693" stroke="black" stroke-width="2" stroke-linecap="round"/>
<line x1="99" y1="643" x2="1" y2="643" stroke="black" stroke-width="2" stroke-linecap="round"/>
<line x1="281" y1="693" x2="183" y2="693" stroke="black" stroke-width="2" stroke-linecap="round"/>
<line x1="99" y1="643" x2="1" y2="643" stroke="black" stroke-width="2" stroke-linecap="round"/>
<line x1="281" y1="593" x2="183" y2="593" stroke="black" stroke-width="2" stroke-linecap="round"/>
<line x1="99" y1="543" x2="1" y2="543" stroke="black" stroke-width="2" stroke-linecap="round"/>
<line x1="281" y1="593" x2="183" y2="593" stroke="black" stroke-width="2" stroke-linecap="round"/>
<line x1="99" y1="543" x2="1" y2="543" stroke="black" stroke-width="2" stroke-linecap="round"/>
<line x1="281" y1="493" x2="183" y2="493" stroke="black" stroke-width="2" stroke-linecap="round"/>
<line x1="99" y1="443" x2="1" y2="443" stroke="black" stroke-width="2" stroke-linecap="round"/>
<line x1="281" y1="493" x2="183" y2="493" stroke="black" stroke-width="2" stroke-linecap="round"/>
<line x1="99" y1="443" x2="1" y2="443" stroke="black" stroke-width="2" stroke-linecap="round"/>
<line x1="281" y1="393" x2="183" y2="393" stroke="black" stroke-width="2" stroke-linecap="round"/>
<line x1="99" y1="343" x2="1" y2="343" stroke="black" stroke-width="2" stroke-linecap="round"/>
<line x1="281" y1="393" x2="183" y2="393" stroke="black" stroke-width="2" stroke-linecap="round"/>
<line x1="99" y1="343" x2="1" y2="343" stroke="black" stroke-width="2" stroke-linecap="round"/>
<line x1="281" y1="293" x2="183" y2="293" stroke="black" stroke-width="2" stroke-linecap="round"/>
<line x1="99" y1="243" x2="1" y2="243" stroke="black" stroke-width="2" stroke-linecap="round"/>
<line x1="281" y1="293" x2="183" y2="293" stroke="black" stroke-width="2" stroke-linecap="round"/>
<line x1="99" y1="243" x2="1" y2="243" stroke="black" stroke-width="2" stroke-linecap="round"/>
<line x1="281" y1="193" x2="183" y2="193" stroke="black" stroke-width="2" stroke-linecap="round"/>
<line x1="99" y1="143" x2="1" y2="143" stroke="black" stroke-width="2" stroke-linecap="round"/>
<line x1="281" y1="193" x2="183" y2="193" stroke="black" stroke-width="2" stroke-linecap="round"/>
<line x1="99" y1="143" x2="1" y2="143" stroke="black" stroke-width="2" stroke-linecap="round"/>
<line x1="281" y1="93" x2="183" y2="93" stroke="black" stroke-width="2" stroke-linecap="round"/>
<line x1="99" y1="43" x2="1" y2="43" stroke="black" stroke-width="2" stroke-linecap="round"/>
<line x1="281" y1="93" x2="183" y2="93" stroke="black" stroke-width="2" stroke-linecap="round"/>
<line x1="99" y1="43" x2="1" y2="43" stroke="black" stroke-width="2" stroke-linecap="round"/>
<line x1="323" y1="51" x2="225" y2="51" stroke="black" stroke-width="2" stroke-linecap="round"/>
<line x1="141" y1="1" x2="43.0005" y2="0.999991" stroke="black" stroke-width="2" stroke-linecap="round"/>
<line x1="322.922" y1="51.4141" x2="281.414" y2="91.925" stroke="black" stroke-width="2" stroke-linecap="round"/>
<line x1="140.922" y1="1.41411" x2="99.4144" y2="41.925" stroke="black" stroke-width="2" stroke-linecap="round"/>
<line x1="322.922" y1="51.4141" x2="281.414" y2="91.925" stroke="black" stroke-width="2" stroke-linecap="round"/>
<line x1="140.922" y1="1.41411" x2="99.4144" y2="41.925" stroke="black" stroke-width="2" stroke-linecap="round"/>
<line x1="322.922" y1="151.414" x2="281.414" y2="191.925" stroke="black" stroke-width="2" stroke-linecap="round"/>
<line x1="140.922" y1="101.414" x2="99.4144" y2="141.925" stroke="black" stroke-width="2" stroke-linecap="round"/>
<line x1="322.922" y1="151.414" x2="281.414" y2="191.925" stroke="black" stroke-width="2" stroke-linecap="round"/>
<line x1="140.922" y1="101.414" x2="99.4144" y2="141.925" stroke="black" stroke-width="2" stroke-linecap="round"/>
<line x1="322.922" y1="251.414" x2="281.414" y2="291.925" stroke="black" stroke-width="2" stroke-linecap="round"/>
<line x1="140.922" y1="201.414" x2="99.4144" y2="241.925" stroke="black" stroke-width="2" stroke-linecap="round"/>
<line x1="322.922" y1="251.414" x2="281.414" y2="291.925" stroke="black" stroke-width="2" stroke-linecap="round"/>
<line x1="140.922" y1="201.414" x2="99.4144" y2="241.925" stroke="black" stroke-width="2" stroke-linecap="round"/>
<line x1="322.922" y1="351.414" x2="281.414" y2="391.925" stroke="black" stroke-width="2" stroke-linecap="round"/>
<line x1="140.922" y1="301.414" x2="99.4144" y2="341.925" stroke="black" stroke-width="2" stroke-linecap="round"/>
<line x1="322.922" y1="351.414" x2="281.414" y2="391.925" stroke="black" stroke-width="2" stroke-linecap="round"/>
<line x1="140.922" y1="301.414" x2="99.4144" y2="341.925" stroke="black" stroke-width="2" stroke-linecap="round"/>
<line x1="322.922" y1="451.414" x2="281.414" y2="491.925" stroke="black" stroke-width="2" stroke-linecap="round"/>
<line x1="140.922" y1="401.414" x2="99.4144" y2="441.925" stroke="black" stroke-width="2" stroke-linecap="round"/>
<line x1="322.922" y1="451.414" x2="281.414" y2="491.925" stroke="black" stroke-width="2" stroke-linecap="round"/>
<line x1="140.922" y1="401.414" x2="99.4144" y2="441.925" stroke="black" stroke-width="2" stroke-linecap="round"/>
<line x1="322.922" y1="551.414" x2="281.414" y2="591.925" stroke="black" stroke-width="2" stroke-linecap="round"/>
<line x1="140.922" y1="501.414" x2="99.4144" y2="541.925" stroke="black" stroke-width="2" stroke-linecap="round"/>
<line x1="322.922" y1="551.414" x2="281.414" y2="591.925" stroke="black" stroke-width="2" stroke-linecap="round"/>
<line x1="140.922" y1="501.414" x2="99.4144" y2="541.925" stroke="black" stroke-width="2" stroke-linecap="round"/>
<line x1="322.922" y1="651.414" x2="281.414" y2="691.925" stroke="black" stroke-width="2" stroke-linecap="round"/>
<line x1="140.922" y1="601.414" x2="99.4144" y2="641.925" stroke="black" stroke-width="2" stroke-linecap="round"/>
<line x1="322.922" y1="651.414" x2="281.414" y2="691.925" stroke="black" stroke-width="2" stroke-linecap="round"/>
<line x1="140.922" y1="601.414" x2="99.4144" y2="641.925" stroke="black" stroke-width="2" stroke-linecap="round"/>
<line x1="322.922" y1="750.414" x2="281.414" y2="790.925" stroke="black" stroke-width="2" stroke-linecap="round"/>
<line x1="140.922" y1="700.414" x2="99.4144" y2="740.925" stroke="black" stroke-width="2" stroke-linecap="round"/>
<line x1="322.922" y1="750.414" x2="281.414" y2="790.925" stroke="black" stroke-width="2" stroke-linecap="round"/>
<line x1="140.922" y1="700.414" x2="99.4144" y2="740.925" stroke="black" stroke-width="2" stroke-linecap="round"/>
<line x1="224.922" y1="51.4141" x2="183.414" y2="91.925" stroke="black" stroke-width="2" stroke-linecap="round"/>
<line x1="42.9213" y1="1.41411" x2="1.41387" y2="41.925" stroke="black" stroke-width="2" stroke-linecap="round"/>
<line x1="224.922" y1="51.4141" x2="183.414" y2="91.925" stroke="black" stroke-width="2" stroke-linecap="round"/>
<line x1="42.9213" y1="1.41411" x2="1.41387" y2="41.925" stroke="black" stroke-width="2" stroke-linecap="round"/>
</svg>
