<svg width="4112" height="4100" viewBox="0 0 4112 4100" fill="none" xmlns="http://www.w3.org/2000/svg">
<rect width="4100" height="4100" rx="200" fill="white"/>
<path fill-rule="evenodd" clip-rule="evenodd" d="M861.935 600.952C660.557 612.005 476.446 711.826 352.172 877.335C278.028 976.081 229.501 1095.17 213.014 1218.83C207.758 1258.26 206.93 1272.79 207.004 1324.33C207.056 1360.37 207.495 1377.32 208.765 1392.33C209.696 1403.33 211.122 1423.58 211.933 1437.33C217.978 1539.7 233.17 1620.1 263.869 1712.18C343.169 1950.05 515.281 2176.77 773.435 2383.43C956.536 2530.01 1188.56 2667.73 1421.44 2768.08C1450.19 2780.47 1476.16 2790.83 1478.44 2790.83C1480.72 2790.83 1506.74 2780.44 1535.44 2768.07C1769.14 2667.29 2000.08 2530.21 2183.44 2383.43C2442.29 2176.22 2613.96 1949.77 2693.51 1710.62C2716.77 1640.69 2731.41 1574.77 2739.44 1503.83C2740.6 1493.66 2742.66 1477.68 2744.02 1468.33C2746.94 1448.36 2750.79 1413.91 2752.63 1391.33C2754.41 1369.57 2754.41 1277.47 2752.64 1258.33C2746.59 1192.87 2735.15 1137.46 2716.05 1081.04C2655.54 902.315 2530.44 756.049 2366.94 672.858C2252.26 614.509 2125.31 590.686 1996.94 603.424C1876.62 615.363 1760.08 660.796 1661.94 734.029C1594.95 784.01 1532.01 851.45 1489.23 919.085C1484.8 926.098 1480.89 931.826 1480.55 931.816C1480.21 931.805 1476.79 926.761 1472.94 920.607C1463.15 904.965 1442.85 876.667 1429.22 859.674C1348.27 758.714 1243.76 683.331 1124.37 639.778C1042.08 609.759 949.908 596.123 861.935 600.952ZM935.435 614.853C1052.39 622.001 1160.54 658.022 1258.94 722.596C1343.54 778.118 1418.57 856.242 1470.94 943.335C1475.24 950.485 1479.26 956.894 1479.87 957.578C1480.73 958.529 1482.63 956.069 1487.96 947.101C1533.53 870.497 1595.38 801.504 1666.68 747.746C1700.88 721.96 1732.75 702.297 1772.44 682.494C1868.1 634.761 1969.14 612.01 2075.94 614.158C2113.93 614.922 2141.44 617.466 2176.44 623.451C2275.1 640.325 2374.31 683.159 2456.44 744.343C2619.7 865.976 2723.14 1055.07 2738.87 1260.66C2740.8 1285.93 2741.72 1303.45 2741.08 1302.81C2740.79 1302.52 2739.38 1294.2 2737.95 1284.31C2719.42 1156.13 2667.4 1035.82 2587.19 935.608C2539.15 875.587 2483.21 825.246 2418.35 783.673C2361.27 747.082 2294.96 717.944 2230.94 701.313C2191.76 691.137 2163.53 686.15 2119.44 681.62C2102.28 679.856 2022.81 679.877 2003.94 681.65C1910.6 690.415 1825.12 716.356 1743.94 760.557C1658.26 807.203 1581.25 874.36 1520.58 955.335C1510.13 969.281 1486.74 1003.93 1481.63 1013.04C1480.15 1015.68 1478.71 1017.83 1478.44 1017.83C1478.16 1017.83 1476.72 1015.68 1475.24 1013.04C1470.13 1003.93 1446.74 969.281 1436.29 955.335C1375.63 874.36 1298.62 807.203 1212.94 760.557C1131.78 716.376 1046.23 690.411 952.935 681.65C934.059 679.877 854.593 679.856 837.435 681.62C770.588 688.489 719.743 700.138 662.007 721.811C548.964 764.246 446.716 839.052 369.472 935.835C324.793 991.816 289.389 1052.77 263.091 1118.99C245.862 1162.37 231.93 1210.19 224.317 1252.08C223.643 1255.79 222.915 1258.65 222.699 1258.43C222.483 1258.22 223.021 1251.36 223.894 1243.19C238.513 1106.37 288.234 982.107 371.219 874.989C489.966 721.708 667.18 626.828 856.935 614.94C876.051 613.742 916.528 613.697 935.435 614.853Z" fill="#165DFC"/>
<path fill-rule="evenodd" clip-rule="evenodd" d="M1398.97 3395.89C1402.87 3411.78 1413.23 3427.06 1426.52 3436.55C1440.37 3446.43 1454.63 3450.57 1471.87 3449.72C1481.53 3449.25 1485.32 3448.37 1513.01 3440.24C1529.79 3435.32 1549.25 3429.81 1556.26 3427.99L1569.01 3424.69L1573.1 3417.09C1597.55 3371.7 1645.67 3337.21 1734.01 3301.77C1764.63 3289.48 1812.61 3272.71 1846.37 3262.49C1852.3 3260.7 1857.92 3258.06 1863.37 3254.52C1886.7 3239.34 1926.82 3219.3 1971.51 3200.5C2044.51 3169.79 2125.19 3146.03 2168.89 3142.39L2176.99 3141.71L2183.52 3131.91C2197.2 3111.37 2218.61 3086.12 2237.32 3068.45L2247.13 3059.2L2242.46 3050.57L2237.79 3041.94L2233.15 3044.63C2205.4 3060.76 2169.45 3089.75 2134.01 3124.57C2115.75 3142.52 2115.44 3142.76 2110.35 3143.4C2101.42 3144.52 2080.17 3150.83 2066.58 3156.4L2053.51 3161.76L2028.51 3162.9C1965.22 3165.78 1908.5 3175.16 1846.57 3192.98C1817.69 3201.29 1776.02 3216.43 1760.57 3224.22C1754.65 3227.21 1754.62 3227.22 1746.07 3226.06C1732.06 3224.17 1701.04 3223.62 1682.51 3224.92C1630.99 3228.55 1578.73 3239.67 1518.01 3259.91C1474.75 3274.34 1447.95 3288.8 1427.67 3308.68C1414.44 3321.65 1406.17 3334.55 1401.2 3350C1396.56 3364.43 1395.68 3382.5 1398.97 3395.89ZM1521.64 3244C1521.99 3244 1529.08 3241.94 1537.39 3239.43C1607.69 3218.19 1674.15 3208.21 1726.51 3211.04C1735.86 3211.55 1745.33 3212.23 1747.56 3212.57C1751.03 3213.08 1753.67 3212.29 1765.9 3207.08C1824.37 3182.17 1899.65 3162.51 1969.01 3154.03C1991.12 3151.32 2022.77 3149 2037.59 3149C2049.41 3149 2049.86 3148.92 2058.59 3145.13C2071.42 3139.56 2090.62 3133.33 2101.12 3131.32C2110.11 3129.59 2110.24 3129.52 2115.21 3124.04C2123.31 3115.08 2149.4 3090.73 2164.51 3078.02C2183.12 3062.37 2202.13 3048.26 2218.93 3037.62L2232.69 3028.91L2230.35 3020.84C2229.06 3016.4 2228.01 3011.95 2228.01 3010.95C2228.01 3009.94 2227.6 3008.86 2227.1 3008.56C2226.1 3007.94 2207.95 3020.87 2193.01 3032.85C2179.65 3043.55 2169.26 3052.74 2156.43 3065.22L2145.34 3076L2139.43 3076C2114.38 3076 2024.24 3090.61 1914.51 3112.44L1877.51 3119.8L1869.01 3118.41C1838.95 3113.51 1777.95 3114.35 1714.01 3120.55C1637.88 3127.94 1608.72 3134.09 1578.59 3149.12C1542.09 3167.32 1521.01 3198.26 1521.01 3233.63C1521.01 3239.33 1521.3 3244 1521.64 3244ZM1576.11 3483.5C1577.8 3491.99 1581.11 3502.24 1584.01 3508C1595.82 3531.42 1619.85 3546 1646.62 3546C1658.71 3546 1663.12 3544.98 1683.51 3537.5C1755.83 3510.94 1889.47 3471.29 2001.62 3443.11C2046.5 3431.84 2061.4 3428.35 2117.51 3415.93C2142.26 3410.45 2172.75 3403.71 2185.27 3400.93C2249.06 3386.8 2285.94 3374.22 2333.51 3350.34C2382.48 3325.77 2423.56 3302.57 2508.51 3251.53C2539.86 3232.69 2573.61 3212.55 2583.51 3206.78C2696.77 3140.73 2781.99 3105.28 2882.05 3082.61C2904.39 3077.55 2914.15 3074.08 2926.09 3066.96C2941.8 3057.59 2951.97 3047.52 2964.95 3028.5C2993.29 2986.96 3016.11 2938.6 3035.04 2880C3052.62 2825.57 3068 2787.99 3093.82 2736.39C3150.3 2623.5 3223.2 2520.77 3277.37 2477.74C3324.95 2439.95 3383.48 2414.89 3443.51 2406.61C3467.44 2403.31 3486.98 2402.75 3519.27 2404.45C3759.33 2417.04 3954.45 2457.96 4091.76 2524.52L4111.01 2533.85L4111.01 2160.93C4111.01 1955.82 4110.84 1788 4110.63 1788C4110.43 1788 4098.61 1790.45 4084.38 1793.45C3972.87 1816.95 3835.87 1836.48 3709.01 1846.96C3665.82 1850.53 3606.8 1854.08 3556.01 1856.18C3514.14 1857.91 3374.02 1857.93 3352.01 1856.21C3304.79 1852.53 3272.5 1848.47 3196.01 1836.58C3129.38 1826.23 3099.16 1822.74 3059.88 1820.86C3020.12 1818.95 2980.81 1821.71 2943.63 1829.01C2908.02 1836 2865.37 1850.15 2838 1864.06C2765.35 1900.99 2708.04 1984.66 2679.49 2095.5C2670.39 2130.83 2667.29 2152.54 2665.98 2190C2664.27 2238.99 2660.9 2270.7 2653.45 2308C2639.49 2377.9 2611.94 2446.77 2574.64 2505C2540.52 2558.27 2501.01 2601.74 2442.01 2650.91C2400.81 2685.25 2369.26 2721.46 2333.47 2775.5C2310.95 2809.5 2293.97 2839.04 2273.97 2879C2244.11 2938.69 2239.02 2953.77 2239.01 2982.62C2239.01 3008.88 2245.54 3031.2 2259.52 3052.65C2273.28 3073.76 2290.58 3086.02 2312.97 3090.55C2325.61 3093.11 2344.76 3092.15 2360.16 3088.19C2387.19 3081.23 2411.17 3068.79 2443.01 3045.21C2513.42 2993.07 2579.38 2917.64 2622.02 2840.5C2623.85 2837.2 2629.22 2830.22 2633.97 2825C2686.93 2766.71 2763.99 2664.24 2874.11 2505.66C2878.67 2499.1 2879.43 2498.51 2892.65 2491.3C2918.31 2477.29 2942.79 2461.21 2964.65 2444C2978.7 2432.94 3001.86 2409.88 3010.24 2398.6C3015.77 2391.16 3025.22 2375.88 3026.31 2372.6C3026.47 2372.11 3029.38 2372.95 3032.76 2374.47L3038.92 2377.23L3035.84 2383.37C3020.41 2414.06 2986.73 2447.55 2940.01 2478.67C2927.22 2487.19 2904.81 2500.56 2895.28 2505.37L2888.25 2508.9L2875.95 2526.7C2786.24 2656.47 2699.4 2772.11 2651.7 2825.34C2640.31 2838.06 2636.06 2843.67 2630.14 2853.84C2599.45 2906.55 2564.22 2952.07 2520.11 2996.02C2489.89 3026.12 2462.32 3049.19 2433.51 3068.48C2372.68 3109.22 2316.11 3116.84 2276.01 3089.69C2273.54 3088.01 2267.82 3083.07 2263.31 3078.69L2255.12 3070.75L2251.31 3073.76C2236.9 3085.19 2205.12 3122.87 2190.68 3145.65L2184.94 3154.7L2175.22 3155.32C2146.28 3157.17 2104.68 3167.05 2052.51 3184.46C1983.55 3207.49 1908.23 3241.3 1869.01 3266.85C1861.84 3271.52 1858.01 3273.15 1844.51 3277.23C1803.03 3289.77 1750.29 3309.02 1713.51 3325.03C1635.7 3358.91 1590.88 3397.59 1577.97 3442C1575.47 3450.61 1574.38 3474.82 1576.11 3483.5ZM1873.76 3105.35C1876.42 3105.79 1889.82 3103.52 1920.01 3097.52C2014.91 3078.65 2087.23 3066.67 2128.45 3063L2140.39 3061.94L2149.95 3052.69C2167.81 3035.41 2193.16 3014.7 2213.61 3000.68L2224.7 2993.07L2225.33 2978.28C2226.24 2956.56 2231.1 2936.72 2239.65 2919.75C2242.48 2914.14 2242.91 2914.25 2229.37 2917.01C2206.23 2921.71 2179.87 2930.93 2158.74 2941.7C2144.27 2949.08 2123.58 2963.01 2112.25 2972.99L2103 2981.15L2093.25 2982.59C2059.78 2987.53 2029.3 2996.13 2000.51 3008.76C1990.52 3013.14 1938.51 3037.17 1927.44 3042.51C1906.67 3052.55 1888.53 3068.34 1878.61 3085.05C1875.85 3089.69 1870.01 3102.76 1870.01 3104.29C1870.01 3104.54 1871.7 3105.02 1873.76 3105.35Z" fill="black"/>
</svg>
